<svg width="29" height="37" viewBox="0 0 29 37" fill="none" xmlns="http://www.w3.org/2000/svg">
<path d="M28.9587 31.321C28.9126 30.9965 28.7763 30.6915 28.5653 30.4407C28.3543 30.1899 28.0771 30.0034 27.7654 29.9024C25.8271 29.2822 24.0463 28.2494 22.5454 26.8752C19.7656 24.3366 18.1021 20.802 17.9177 17.042C17.7333 13.282 19.0429 9.60163 21.561 6.80326C22.3614 5.93649 23.2611 5.16696 24.2415 4.51056C24.4914 4.32526 24.6875 4.07667 24.8094 3.79041C24.9313 3.50414 24.9747 3.19055 24.9351 2.88194C24.8954 2.57332 24.7743 2.28085 24.584 2.03466C24.3937 1.78846 24.1413 1.59744 23.8526 1.48128C20.9938 0.545641 17.9441 0.352088 14.99 0.918798C12.0358 1.48551 9.27421 2.79388 6.96459 4.721C4.65496 6.64812 2.87312 9.13073 1.78647 11.9356C0.69982 14.7405 0.344021 17.7756 0.752497 20.7557C1.16097 23.7359 2.32032 26.5633 4.12162 28.9723C5.92291 31.3814 8.30704 33.293 11.05 34.5275C13.793 35.7621 16.8048 36.2792 19.8025 36.0301C22.8002 35.781 25.6854 34.774 28.187 33.1036C28.4773 32.9159 28.7055 32.6465 28.8429 32.3292C28.9802 32.012 29.0205 31.6611 28.9587 31.321V31.321ZM8.78453 28.7796C6.6274 26.7864 5.13909 24.1752 4.52336 21.3035C3.90764 18.4318 4.19461 15.4399 5.34499 12.7376C6.49536 10.0353 8.4529 7.75456 10.9496 6.20777C13.4462 4.66098 16.36 3.92371 19.2919 4.09691L18.9737 4.4462C15.8087 7.92732 14.154 12.5219 14.3729 17.2217C14.5918 21.9214 16.6663 26.3424 20.1412 29.5142C21.0513 30.3495 22.0491 31.0839 23.1171 31.7046C20.6858 32.5802 18.0616 32.7753 15.5274 32.269C12.9933 31.7627 10.6456 30.574 8.73739 28.8314L8.78453 28.7796Z" fill="black"/>
</svg>
