<svg width="170" height="69" viewBox="0 0 170 69" fill="none" xmlns="http://www.w3.org/2000/svg">
<path d="M20.3595 7.30807C21.069 3.12941 25.0316 0.317102 29.2102 1.0266L162.879 23.7221C167.057 24.4316 169.87 28.3942 169.16 32.5729L164.193 61.8286C163.483 66.0073 159.521 68.8196 155.342 68.1101L21.6736 45.4146C17.495 44.7051 14.6827 40.7425 15.3921 36.5638L20.3595 7.30807Z" fill="#4900E5"/>
<path d="M20.3595 7.30807C21.069 3.12941 25.0316 0.317102 29.2102 1.0266L162.879 23.7221C167.057 24.4316 169.87 28.3942 169.16 32.5729L164.193 61.8286C163.483 66.0073 159.521 68.8196 155.342 68.1101L21.6736 45.4146C17.495 44.7051 14.6827 40.7425 15.3921 36.5638L20.3595 7.30807Z" fill="url(#paint0_linear_20_123)"/>
<path d="M2.32357 42.8294C9.29704 43.3367 13.7944 39.5035 15.2637 37.3204L22.178 45.5002L2.32357 42.8294C1.61066 42.7776 0.871867 42.6803 0.107788 42.5314L2.32357 42.8294Z" fill="#4900E5"/>
<path d="M2.32357 42.8294C9.29704 43.3367 13.7944 39.5035 15.2637 37.3204L22.178 45.5002L2.32357 42.8294C1.61066 42.7776 0.871867 42.6803 0.107788 42.5314L2.32357 42.8294Z" fill="url(#paint1_linear_20_123)"/>
<defs>
<linearGradient id="paint0_linear_20_123" x1="84.6887" y1="0.917082" x2="52.6068" y2="61.3868" gradientUnits="userSpaceOnUse">
<stop stop-color="#9D70FF"/>
<stop offset="1" stop-color="#8687DD"/>
</linearGradient>
<linearGradient id="paint1_linear_20_123" x1="84.6887" y1="0.917082" x2="52.6068" y2="61.3868" gradientUnits="userSpaceOnUse">
<stop stop-color="#9D70FF"/>
<stop offset="1" stop-color="#8687DD"/>
</linearGradient>
</defs>
</svg>
