<svg width="232" height="86" viewBox="0 0 232 86" fill="none" xmlns="http://www.w3.org/2000/svg">
<path d="M209.599 7.07537C208.734 2.92603 204.67 0.263236 200.52 1.12786L7.02523 41.4474C2.87589 42.3121 0.213095 46.3767 1.07772 50.526L7.12637 79.5537C7.99099 83.703 12.0556 86.3658 16.2049 85.5012L209.7 45.1816C213.849 44.317 216.512 40.2524 215.647 36.103L209.599 7.07537Z" fill="#4900E5"/>
<path d="M209.599 7.07537C208.734 2.92603 204.67 0.263236 200.52 1.12786L7.02523 41.4474C2.87589 42.3121 0.213095 46.3767 1.07772 50.526L7.12637 79.5537C7.99099 83.703 12.0556 86.3658 16.2049 85.5012L209.7 45.1816C213.849 44.317 216.512 40.2524 215.647 36.103L209.599 7.07537Z" fill="url(#paint0_linear_20_126)"/>
<path d="M228.877 41.9146C221.927 42.6812 217.29 39.0182 215.74 36.8913L209.136 45.323L228.877 41.9146C229.587 41.8363 230.322 41.7116 231.08 41.5342L228.877 41.9146Z" fill="#4900E5"/>
<path d="M228.877 41.9146C221.927 42.6812 217.29 39.0182 215.74 36.8913L209.136 45.323L228.877 41.9146C229.587 41.8363 230.322 41.7116 231.08 41.5342L228.877 41.9146Z" fill="url(#paint1_linear_20_126)"/>
<defs>
<linearGradient id="paint0_linear_20_126" x1="115.997" y1="0.964932" x2="77.4295" y2="79.5596" gradientUnits="userSpaceOnUse">
<stop stop-color="#9D70FF"/>
<stop offset="1" stop-color="#8687DD"/>
</linearGradient>
<linearGradient id="paint1_linear_20_126" x1="115.997" y1="0.964932" x2="77.4295" y2="79.5596" gradientUnits="userSpaceOnUse">
<stop stop-color="#9D70FF"/>
<stop offset="1" stop-color="#8687DD"/>
</linearGradient>
</defs>
</svg>
